<?xml version="1.0" standalone="no"?>
<!DOCTYPE svg PUBLIC "-//W3C//DTD SVG 20010904//EN"
 "http://www.w3.org/TR/2001/REC-SVG-20010904/DTD/svg10.dtd">
<svg version="1.0" xmlns="http://www.w3.org/2000/svg"
 width="192.000000pt" height="192.000000pt" viewBox="0 0 192.000000 192.000000"
 preserveAspectRatio="xMidYMid meet">
<metadata>
Created by potrace 1.11, written by Peter Selinger 2001-2013
</metadata>
<g transform="translate(0.000000,192.000000) scale(0.100000,-0.100000)"
fill="#000000" stroke="none">
<path d="M975 1864 c-129 -35 -223 -101 -291 -204 -26 -40 -52 -125 -56 -185
-1 -22 -13 -55 -25 -74 -27 -40 -31 -111 -8 -154 10 -21 12 -34 5 -47 -16 -30
-12 -50 13 -59 28 -11 47 -4 48 18 0 10 2 12 6 3 6 -15 -23 -90 -43 -113 -12
-14 -23 -15 -55 -8 -22 5 -44 7 -49 4 -5 -3 -14 4 -20 15 -9 16 -17 19 -43 15
-18 -3 -36 -12 -42 -19 -5 -7 -38 -18 -72 -26 -35 -7 -63 -17 -63 -22 0 -5 -4
-7 -9 -3 -5 3 -12 1 -15 -4 -4 -5 -30 -17 -59 -26 -81 -26 -154 -74 -173 -113
-18 -38 -13 -56 40 -149 33 -58 53 -65 107 -38 19 10 35 13 47 7 9 -5 31 -5
48 -1 33 9 67 59 88 131 9 33 17 44 35 46 13 2 27 -2 32 -9 9 -16 61 -20 70
-6 9 13 143 -20 170 -42 17 -13 21 -32 26 -109 5 -79 4 -92 -10 -92 -9 0 -18
-8 -21 -18 -17 -52 -102 -104 -317 -197 l-67 -28 50 -111 c27 -61 54 -121 59
-133 14 -38 63 -23 65 19 1 13 2 33 3 45 2 42 47 78 138 113 48 19 93 36 98
40 34 22 108 41 142 35 21 -3 67 -10 103 -16 36 -5 76 -12 90 -15 14 -3 40 -7
57 -9 70 -8 102 -32 286 -213 l58 -57 42 45 c23 25 69 73 101 108 l60 63 -22
22 c-19 18 -25 20 -42 9 -26 -16 -89 -15 -119 2 -14 8 -75 64 -136 124 l-111
111 14 45 15 45 54 -49 c30 -28 59 -50 64 -50 6 0 8 -8 5 -18 -5 -14 2 -21 29
-31 19 -7 39 -10 44 -7 5 3 31 -1 58 -9 27 -8 67 -17 89 -19 21 -3 65 -15 98
-26 76 -27 150 -28 185 -2 20 15 29 35 41 93 9 41 15 80 14 87 -1 6 -2 16 -3
22 0 5 -20 15 -43 21 -24 7 -55 25 -70 39 -23 22 -35 27 -65 23 -39 -4 -110
-40 -132 -67 -17 -21 -71 -2 -71 25 0 19 -44 44 -60 34 -13 -8 -120 108 -128
140 -6 20 -19 35 -43 47 -20 10 -27 17 -17 18 10 0 39 13 65 29 l48 30 59 -20
c60 -21 191 -30 214 -15 15 9 16 43 2 51 -6 4 -26 29 -44 57 l-34 50 24 46
c28 52 31 100 8 148 -13 26 -14 43 -7 72 45 181 -83 402 -282 485 -99 41 -261
56 -350 31z"/>
</g>
</svg>
